<svg xmlns="http://www.w3.org/2000/svg" viewBox="0 0 1600 1500" width="1600" height="1500" font-family="Inter, 'Segoe UI', Calibri, Carlito, Arial, sans-serif">
<title>Trinocular — SQL parse tree to Trino OPA authorization checks (Trino 484, Path B)</title>
<defs>
  <marker id="ah" viewBox="0 0 10 10" refX="9" refY="5" markerWidth="7" markerHeight="7" orient="auto-start-reverse"><path d="M0,0 L10,5 L0,10 z" fill="#343A40"/></marker>
  <marker id="ahp" viewBox="0 0 10 10" refX="9" refY="5" markerWidth="9" markerHeight="9" orient="auto-start-reverse"><path d="M0,1 L10,5 L0,9" fill="none" stroke="#F08C8C" stroke-width="1.6"/></marker>
</defs>
<rect width="1600" height="1500" fill="#fff"/>
<rect x="8.5" y="8.5" width="1583" height="1483" rx="10" fill="none" stroke="#CED4DA"/>
<g id="trinocular-logo" transform="translate(28 22)">
  <rect x="14" y="8" width="16" height="12" rx="3" fill="#364FC7"/>
  <circle cx="12" cy="30" r="15" fill="#364FC7"/><circle cx="32" cy="30" r="15" fill="#364FC7"/>
  <circle cx="12" cy="30" r="9.5" fill="#DBE4FF"/><circle cx="32" cy="30" r="9.5" fill="#DBE4FF"/>
  <circle cx="9" cy="27" r="3" fill="#fff"/><circle cx="29" cy="27" r="3" fill="#fff"/>
  <circle cx="22" cy="12" r="4.5" fill="#FAB005" stroke="#364FC7" stroke-width="1.5"/>
</g>
<text x="86" y="52" font-size="34" font-weight="700" fill="#212529">Trinocular</text>
<text x="280" y="44" font-size="20" fill="#343A40">SQL parse tree → Trino OPA authorization checks</text>
<text x="280" y="68" font-size="13.5" fill="#868E96">Verified against Trino 484 (plugin/trino-opa) and the Ranger rego action map — enforcement Path B (OPA). Allow-only: no deny, union of grants.</text>
<line x1="20" y1="90" x2="1580" y2="90" stroke="#DEE2E6"/>
<rect x="20.5" y="106.5" width="540" height="170" rx="8" fill="#F8F9FA" stroke="#DEE2E6"/>
<text x="36" y="130" font-size="12" fill="#868E96" letter-spacing="1">QUERY</text>
<text x="36" y="153" font-size="15" font-family="'JetBrains Mono', Consolas, 'DejaVu Sans Mono', monospace" fill="#212529">SELECT shipmode, SUM(extendedprice) AS revenue,</text>
<text x="60" y="175" font-size="15" font-family="'JetBrains Mono', Consolas, 'DejaVu Sans Mono', monospace" fill="#212529">AVG(discount) AS avg_discount,</text>
<text x="60" y="197" font-size="15" font-family="'JetBrains Mono', Consolas, 'DejaVu Sans Mono', monospace" fill="#212529">memory.default.<tspan fill="#0C8599" font-weight="700">MY_FUNC</tspan>(shipmode) AS mode_label</text>
<text x="36" y="219" font-size="15" font-family="'JetBrains Mono', Consolas, 'DejaVu Sans Mono', monospace" fill="#212529">FROM tpch.tiny.lineitem</text>
<text x="36" y="241" font-size="15" font-family="'JetBrains Mono', Consolas, 'DejaVu Sans Mono', monospace" fill="#212529">WHERE shipdate &lt;= DATE '1998-12-01' - INTERVAL '90' DAY</text>
<text x="36" y="263" font-size="15" font-family="'JetBrains Mono', Consolas, 'DejaVu Sans Mono', monospace" fill="#212529">GROUP BY shipmode;</text>
<line x1="561" y1="190" x2="596" y2="190" stroke="#343A40" stroke-width="2" marker-end="url(#ah)"/>
<text x="20" y="300" font-size="12" fill="#868E96" letter-spacing="1">LEGEND</text>
<rect x="20" y="310" width="70" height="20" rx="4" fill="#fff" stroke="#DEE2E6"/>
<text x="55" y="324" font-size="12.5" text-anchor="middle" fill="#212529" font-family="'JetBrains Mono', Consolas, 'DejaVu Sans Mono', monospace">select</text>
<text x="98" y="324" font-size="13" fill="#343A40">policy-checked — the access type a grant must carry</text>
<rect x="20" y="336" width="70" height="20" rx="4" fill="#EBFBEE" stroke="#B2F2BB"/>
<text x="55" y="350" font-size="12.5" text-anchor="middle" fill="#2B8A3E" >✓ always</text>
<text x="98" y="350" font-size="13" fill="#343A40">allowed without consulting policy</text>
<rect x="20" y="362" width="70" height="20" rx="4" fill="#FFF5F5" stroke="#FFC9C9"/>
<text x="55" y="376" font-size="12.5" text-anchor="middle" fill="#C92A2A" >✕ denied</text>
<text x="98" y="376" font-size="13" fill="#343A40">always denied — the rego has no mapping, so no grant can allow it</text>
<rect x="20" y="388" width="70" height="20" rx="4" fill="#F3F0FF" stroke="#D0BFFF"/>
<text x="55" y="402" font-size="12.5" text-anchor="middle" fill="#6741D9" >provider</text>
<text x="98" y="402" font-size="13" fill="#343A40">own OPA endpoint; answered by the mask/filter provider (Workstream R)</text>
<text x="20" y="430" font-size="13" fill="#343A40"><tspan fill="#868E96">(batch)</tspan> filter op, evaluated per item    <tspan font-weight="700">†</tspan> checked on catalog.schema    <tspan font-weight="700">‡</tspan> checked on catalog</text>
<text x="20" y="450" font-size="13" fill="#343A40">Grey text right of each section = the Ranger resource checked · grey tree node = not policy-checked</text>
<text x="20" y="478" font-size="12" fill="#868E96" letter-spacing="1">ACCESS TYPES ON PATH B</text>
<rect x="20" y="488" width="59.599999999999994" height="20" rx="4" fill="#EDF2FF" stroke="#BAC8FF"/>
<text x="49.8" y="502" font-size="12.5" text-anchor="middle" fill="#364FC7" font-family="'JetBrains Mono', Consolas, 'DejaVu Sans Mono', monospace">select</text>
<rect x="85.6" y="488" width="59.599999999999994" height="20" rx="4" fill="#EDF2FF" stroke="#BAC8FF"/>
<text x="115.39999999999999" y="502" font-size="12.5" text-anchor="middle" fill="#364FC7" font-family="'JetBrains Mono', Consolas, 'DejaVu Sans Mono', monospace">insert</text>
<rect x="151.2" y="488" width="59.599999999999994" height="20" rx="4" fill="#EDF2FF" stroke="#BAC8FF"/>
<text x="181" y="502" font-size="12.5" text-anchor="middle" fill="#364FC7" font-family="'JetBrains Mono', Consolas, 'DejaVu Sans Mono', monospace">create</text>
<rect x="216.79999999999998" y="488" width="44.4" height="20" rx="4" fill="#EDF2FF" stroke="#BAC8FF"/>
<text x="238.99999999999997" y="502" font-size="12.5" text-anchor="middle" fill="#364FC7" font-family="'JetBrains Mono', Consolas, 'DejaVu Sans Mono', monospace">drop</text>
<rect x="267.2" y="488" width="59.599999999999994" height="20" rx="4" fill="#EDF2FF" stroke="#BAC8FF"/>
<text x="297" y="502" font-size="12.5" text-anchor="middle" fill="#364FC7" font-family="'JetBrains Mono', Consolas, 'DejaVu Sans Mono', monospace">delete</text>
<rect x="332.79999999999995" y="488" width="52" height="20" rx="4" fill="#EDF2FF" stroke="#BAC8FF"/>
<text x="358.79999999999995" y="502" font-size="12.5" text-anchor="middle" fill="#364FC7" font-family="'JetBrains Mono', Consolas, 'DejaVu Sans Mono', monospace">alter</text>
<rect x="390.79999999999995" y="488" width="44.4" height="20" rx="4" fill="#EDF2FF" stroke="#BAC8FF"/>
<text x="412.99999999999994" y="502" font-size="12.5" text-anchor="middle" fill="#364FC7" font-family="'JetBrains Mono', Consolas, 'DejaVu Sans Mono', monospace">show</text>
<rect x="441.19999999999993" y="488" width="36.8" height="20" rx="4" fill="#EDF2FF" stroke="#BAC8FF"/>
<text x="459.5999999999999" y="502" font-size="12.5" text-anchor="middle" fill="#364FC7" font-family="'JetBrains Mono', Consolas, 'DejaVu Sans Mono', monospace">use</text>
<rect x="483.99999999999994" y="488" width="52" height="20" rx="4" fill="#EDF2FF" stroke="#BAC8FF"/>
<text x="509.99999999999994" y="502" font-size="12.5" text-anchor="middle" fill="#364FC7" font-family="'JetBrains Mono', Consolas, 'DejaVu Sans Mono', monospace">grant</text>
<rect x="20" y="514" width="97.6" height="20" rx="4" fill="#EDF2FF" stroke="#BAC8FF"/>
<text x="68.8" y="528" font-size="12.5" text-anchor="middle" fill="#364FC7" font-family="'JetBrains Mono', Consolas, 'DejaVu Sans Mono', monospace">impersonate</text>
<rect x="123.6" y="514" width="67.19999999999999" height="20" rx="4" fill="#EDF2FF" stroke="#BAC8FF"/>
<text x="157.2" y="528" font-size="12.5" text-anchor="middle" fill="#364FC7" font-family="'JetBrains Mono', Consolas, 'DejaVu Sans Mono', monospace">execute</text>
<text x="20" y="552" font-size="13" fill="#343A40"><tspan font-weight="700">Inert:</tspan> <tspan font-family="'JetBrains Mono', Consolas, 'DejaVu Sans Mono', monospace">revoke</tspan> (no op maps to it) · <tspan font-family="'JetBrains Mono', Consolas, 'DejaVu Sans Mono', monospace">all</tspan> (never expanded — use the concrete verbs)</text>
<text x="20" y="572" font-size="13" fill="#343A40"><tspan font-weight="700">Absent:</tspan> <tspan font-family="'JetBrains Mono', Consolas, 'DejaVu Sans Mono', monospace">read_sysinfo</tspan> / <tspan font-family="'JetBrains Mono', Consolas, 'DejaVu Sans Mono', monospace">write_sysinfo</tspan> — their operations are denied on Path B</text>
<text x="20" y="596" font-size="12" fill="#868E96" letter-spacing="1">PRINCIPALS</text>
<text x="20" y="616" font-size="13" fill="#343A40">Grants name <tspan font-weight="700">users</tspan> and directory <tspan font-weight="700">(LDAP) groups</tspan>; the implicit group</text>
<text x="20" y="632" font-size="13" fill="#343A40"><tspan font-family="'JetBrains Mono', Consolas, 'DejaVu Sans Mono', monospace">public</tspan> matches everyone. Roles are never matched on Path B,</text>
<text x="20" y="648" font-size="13" fill="#343A40">and validity schedules are not enforced.</text>
<rect x="600.5" y="106.5" width="980" height="548" rx="8" fill="none" stroke="#ADB5BD" stroke-width="1.3" stroke-dasharray="5 4"/>
<text x="614" y="128" font-size="12" fill="#868E96" letter-spacing="1">PARSE TREE</text>
<rect x="1040" y="120" width="100" height="30" rx="6" fill="#fff" stroke="#CED4DA" stroke-width="1"/>
<text x="1090" y="140" font-size="14.5" text-anchor="middle" fill="#212529" font-weight="700">SELECT</text>
<line x1="1090" y1="150" x2="1090" y2="170" stroke="#495057" stroke-width="1.4"/>
<line x1="760" y1="170" x2="1470" y2="170" stroke="#495057" stroke-width="1.4"/>
<line x1="760" y1="170" x2="760" y2="188" stroke="#495057" stroke-width="1.4"/>
<line x1="1010" y1="170" x2="1010" y2="188" stroke="#495057" stroke-width="1.4"/>
<line x1="1235" y1="170" x2="1235" y2="188" stroke="#495057" stroke-width="1.4"/>
<line x1="1470" y1="170" x2="1470" y2="188" stroke="#495057" stroke-width="1.4"/>
<rect x="706" y="188" width="108" height="30" rx="6" fill="#fff" stroke="#4263EB" stroke-width="1.6"/>
<text x="760" y="208" font-size="14.5" text-anchor="middle" fill="#212529" >shipmode</text>
<circle cx="828" cy="203" r="10" fill="#4263EB"/>
<text x="828" y="207.5" font-size="12" font-weight="700" text-anchor="middle" fill="#fff">2</text>
<rect x="928" y="188" width="164" height="30" rx="6" fill="#F8F9FA" stroke="#CED4DA" stroke-width="1"/>
<text x="1010" y="208" font-size="14.5" text-anchor="middle" fill="#868E96" >SUM(extendedprice)</text>
<rect x="1170" y="188" width="130" height="30" rx="6" fill="#F8F9FA" stroke="#CED4DA" stroke-width="1"/>
<text x="1235" y="208" font-size="14.5" text-anchor="middle" fill="#868E96" >AVG(discount)</text>
<rect x="1375" y="188" width="190" height="30" rx="6" fill="#E3FAFC" stroke="#0C8599" stroke-width="1.8"/>
<text x="1470" y="208" font-size="14.5" text-anchor="middle" fill="#0B7285" font-weight="700">MY_FUNC(shipmode)</text>
<circle cx="1356" cy="203" r="10" fill="#0C8599"/>
<text x="1356" y="207.5" font-size="12" font-weight="700" text-anchor="middle" fill="#fff">5</text>
<line x1="965" y1="218" x2="965" y2="244" stroke="#495057" stroke-width="1.4"/>
<line x1="1062" y1="218" x2="1062" y2="244" stroke="#495057" stroke-width="1.4"/>
<line x1="1200" y1="218" x2="1200" y2="244" stroke="#495057" stroke-width="1.4"/>
<line x1="1275" y1="218" x2="1275" y2="244" stroke="#495057" stroke-width="1.4"/>
<line x1="1470" y1="218" x2="1470" y2="244" stroke="#495057" stroke-width="1.4"/>
<rect x="930" y="244" width="60" height="30" rx="6" fill="#F8F9FA" stroke="#CED4DA" stroke-width="1"/>
<text x="960" y="264" font-size="14.5" text-anchor="middle" fill="#868E96" >SUM</text>
<rect x="1004" y="244" width="116" height="30" rx="6" fill="#fff" stroke="#4263EB" stroke-width="1.6"/>
<text x="1062" y="264" font-size="14.5" text-anchor="middle" fill="#212529" >extendedprice</text>
<rect x="1162" y="244" width="56" height="30" rx="6" fill="#F8F9FA" stroke="#CED4DA" stroke-width="1"/>
<text x="1190" y="264" font-size="14.5" text-anchor="middle" fill="#868E96" >AVG</text>
<rect x="1233" y="244" width="94" height="30" rx="6" fill="#fff" stroke="#4263EB" stroke-width="1.6"/>
<text x="1280" y="264" font-size="14.5" text-anchor="middle" fill="#212529" >discount</text>
<rect x="1416" y="244" width="108" height="30" rx="6" fill="#fff" stroke="#4263EB" stroke-width="1.6"/>
<text x="1470" y="264" font-size="14.5" text-anchor="middle" fill="#212529" >shipmode</text>
<text x="900" y="290" font-size="12" text-anchor="middle" fill="#868E96" font-style="italic">built-ins: no access check</text>
<text x="1470" y="292" font-size="12" text-anchor="middle" fill="#0B7285" font-style="italic">custom: ExecuteFunction → execute</text>
<line x1="760" y1="218" x2="760" y2="244" stroke="#495057" stroke-width="1.4"/>
<rect x="715" y="244" width="90" height="30" rx="6" fill="#fff" stroke="#CED4DA" stroke-width="1"/>
<text x="760" y="264" font-size="14.5" text-anchor="middle" fill="#212529" font-weight="700">FROM</text>
<line x1="760" y1="274" x2="760" y2="296" stroke="#495057" stroke-width="1.4"/>
<rect x="636" y="296" width="290" height="110" rx="6" fill="#fff" stroke="#4263EB" stroke-width="1.6"/>
<circle cx="654" cy="319" r="3.5" fill="#212529"/>
<text x="668" y="324" font-size="16" fill="#212529"><tspan font-family="'JetBrains Mono', Consolas, 'DejaVu Sans Mono', monospace">tpch</tspan> <tspan fill="#868E96">(catalog)</tspan></text>
<circle cx="654" cy="347" r="3.5" fill="#212529"/>
<text x="668" y="352" font-size="16" fill="#212529"><tspan font-family="'JetBrains Mono', Consolas, 'DejaVu Sans Mono', monospace">tiny</tspan> <tspan fill="#868E96">(schema)</tspan></text>
<circle cx="654" cy="375" r="3.5" fill="#212529"/>
<text x="668" y="380" font-size="16" fill="#212529"><tspan font-family="'JetBrains Mono', Consolas, 'DejaVu Sans Mono', monospace">lineitem</tspan> <tspan fill="#868E96">(table)</tspan></text>
<circle cx="905" cy="319" r="10" fill="#4263EB"/>
<text x="905" y="323.5" font-size="12" font-weight="700" text-anchor="middle" fill="#fff">1</text>
<circle cx="905" cy="375" r="10" fill="#4263EB"/>
<text x="905" y="379.5" font-size="12" font-weight="700" text-anchor="middle" fill="#fff">3</text>
<text x="650" y="400" font-size="11" fill="#868E96">columns: shipmode · extendedprice · discount · shipdate</text>
<line x1="760" y1="406" x2="760" y2="428" stroke="#495057" stroke-width="1.4"/>
<rect x="712" y="428" width="96" height="30" rx="6" fill="#fff" stroke="#CED4DA" stroke-width="1"/>
<text x="760" y="448" font-size="14.5" text-anchor="middle" fill="#212529" font-weight="700">WHERE</text>
<line x1="760" y1="458" x2="760" y2="478" stroke="#495057" stroke-width="1.4"/>
<rect x="622" y="478" width="120" height="30" rx="6" fill="#fff" stroke="#4263EB" stroke-width="1.6"/>
<text x="682" y="498" font-size="14.5" text-anchor="middle" font-family="'JetBrains Mono', Consolas, 'DejaVu Sans Mono', monospace">shipdate</text>
<rect x="742" y="478" width="294" height="30" rx="6" fill="#F8F9FA" stroke="#CED4DA"/>
<text x="889" y="497" font-size="11.5" text-anchor="middle" fill="#868E96" font-family="'JetBrains Mono', Consolas, 'DejaVu Sans Mono', monospace">&lt;= DATE '1998-12-01' - INTERVAL '90' DAY</text>
<circle cx="1050" cy="493" r="10" fill="#4263EB"/>
<text x="1050" y="497.5" font-size="12" font-weight="700" text-anchor="middle" fill="#fff">4</text>
<line x1="760" y1="508" x2="760" y2="530" stroke="#495057" stroke-width="1.4"/>
<rect x="705" y="530" width="110" height="30" rx="6" fill="#fff" stroke="#CED4DA" stroke-width="1"/>
<text x="760" y="550" font-size="14.5" text-anchor="middle" fill="#212529" font-weight="700">GROUP BY</text>
<line x1="760" y1="560" x2="760" y2="582" stroke="#495057" stroke-width="1.4"/>
<rect x="706" y="582" width="108" height="30" rx="6" fill="#fff" stroke="#4263EB" stroke-width="1.6"/>
<text x="760" y="602" font-size="14.5" text-anchor="middle" fill="#212529" >shipmode</text>
<path d="M1215,372 L816,206" fill="none" stroke="#F08C8C" stroke-width="1.6" marker-end="url(#ahp)"/>
<path d="M1215,372 L1062,276" fill="none" stroke="#F08C8C" stroke-width="1.6" marker-end="url(#ahp)"/>
<path d="M1215,372 L1280,276" fill="none" stroke="#F08C8C" stroke-width="1.6" marker-end="url(#ahp)"/>
<path d="M1215,372 L1400,218" fill="none" stroke="#F08C8C" stroke-width="1.6" marker-end="url(#ahp)"/>
<path d="M1215,372 L1460,276" fill="none" stroke="#F08C8C" stroke-width="1.6" marker-end="url(#ahp)"/>
<path d="M1215,372 L930,322" fill="none" stroke="#F08C8C" stroke-width="1.6" marker-end="url(#ahp)"/>
<path d="M1215,372 L930,350" fill="none" stroke="#F08C8C" stroke-width="1.6" marker-end="url(#ahp)"/>
<path d="M1215,372 L930,378" fill="none" stroke="#F08C8C" stroke-width="1.6" marker-end="url(#ahp)"/>
<path d="M1215,372 L716,510" fill="none" stroke="#F08C8C" stroke-width="1.6" marker-end="url(#ahp)"/>
<path d="M1215,372 L816,598" fill="none" stroke="#F08C8C" stroke-width="1.6" marker-end="url(#ahp)"/>
<rect x="1222" y="344" width="346" height="66" rx="6" fill="#FFF5F5" stroke="#FFC9C9"/>
<text x="1236" y="366" font-size="14.5" fill="#212529">Grants to users and LDAP groups attach at</text>
<text x="1236" y="385" font-size="14.5" fill="#212529">resource nodes: catalog · schema · table ·</text>
<text x="1236" y="404" font-size="14.5" fill="#212529">column — and custom functions.</text>
<rect x="1064" y="430" width="504" height="218" rx="6" fill="#F8F9FA" stroke="#DEE2E6"/>
<text x="1078" y="450" font-size="12" fill="#868E96" letter-spacing="1">WHAT TRINO ASKS OPA FOR THIS QUERY</text>
<circle cx="1088" cy="469" r="10" fill="#4263EB"/>
<text x="1088" y="473.5" font-size="12" font-weight="700" text-anchor="middle" fill="#fff">1</text>
<text x="1106" y="474" font-size="13" fill="#212529">AccessCatalog on tpch</text>
<rect x="1484" y="459" width="74" height="20" rx="4" fill="#fff" stroke="#DEE2E6"/>
<text x="1521" y="473" font-size="12.5" text-anchor="middle" fill="#212529" font-family="'JetBrains Mono', Consolas, 'DejaVu Sans Mono', monospace">use</text>
<circle cx="1088" cy="491.5" r="10" fill="#4263EB"/>
<text x="1088" y="496" font-size="12" font-weight="700" text-anchor="middle" fill="#fff">2</text>
<text x="1106" y="496.5" font-size="13" fill="#212529">SelectFromColumns on tpch.tiny.lineitem</text>
<rect x="1484" y="481.5" width="74" height="20" rx="4" fill="#fff" stroke="#DEE2E6"/>
<text x="1521" y="495.5" font-size="12.5" text-anchor="middle" fill="#212529" font-family="'JetBrains Mono', Consolas, 'DejaVu Sans Mono', monospace">select</text>
<text x="1106" y="519" font-size="13" fill="#868E96">{ shipmode, extendedprice, discount, shipdate } — all columns read</text>
<circle cx="1088" cy="536.5" r="10" fill="#4263EB"/>
<text x="1088" y="541" font-size="12" font-weight="700" text-anchor="middle" fill="#fff">3</text>
<text x="1106" y="541.5" font-size="13" fill="#212529">GetRowFilters on lineitem → predicate ANDed into WHERE</text>
<rect x="1484" y="526.5" width="74" height="20" rx="4" fill="#F3F0FF" stroke="#D0BFFF"/>
<text x="1521" y="540.5" font-size="12.5" text-anchor="middle" fill="#6741D9" >provider</text>
<circle cx="1088" cy="559" r="10" fill="#4263EB"/>
<text x="1088" y="563.5" font-size="12" font-weight="700" text-anchor="middle" fill="#fff">4</text>
<text x="1106" y="564" font-size="13" fill="#212529">GetColumnMask (batch) → at most one mask per column</text>
<rect x="1484" y="549" width="74" height="20" rx="4" fill="#F3F0FF" stroke="#D0BFFF"/>
<text x="1521" y="563" font-size="12.5" text-anchor="middle" fill="#6741D9" >provider</text>
<text x="1106" y="586.5" font-size="13" fill="#868E96">Masks fail closed: two masks on one column ⇒ NULL</text>
<circle cx="1088" cy="604" r="10" fill="#0C8599"/>
<text x="1088" y="608.5" font-size="12" font-weight="700" text-anchor="middle" fill="#fff">5</text>
<text x="1106" y="609" font-size="13" fill="#212529">ExecuteFunction on memory.default.my_func</text>
<rect x="1484" y="594" width="74" height="20" rx="4" fill="#E3FAFC" stroke="#99E9F2"/>
<text x="1521" y="608" font-size="12.5" text-anchor="middle" fill="#0B7285" font-family="'JetBrains Mono', Consolas, 'DejaVu Sans Mono', monospace">execute</text>
<text x="1106" y="631.5" font-size="13" fill="#868E96">after AccessCatalog on memory (use) · denied ⇒ "Cannot execute function"</text>
<line x1="20" y1="674" x2="1580" y2="674" stroke="#DEE2E6"/>
<text x="20" y="692" font-size="12" fill="#868E96" letter-spacing="1">TRINO OPA OPERATION → ACCESS TYPE</text>
<text x="20" y="722" font-size="16" font-weight="700" fill="#E03131">CATALOG</text>
<text x="388" y="722" font-size="11.5" text-anchor="end" fill="#868E96">catalog</text>
<rect x="20" y="730" width="3" height="110" fill="#E03131"/>
<rect x="23.5" y="730.5" width="259" height="22" fill="#fff" stroke="#DEE2E6"/>
<text x="31" y="745.5" font-size="13.5" fill="#212529">AccessCatalog</text>
<rect x="282.5" y="730.5" width="106" height="22" fill="#fff" stroke="#DEE2E6"/>
<text x="292" y="745.5" font-size="13" fill="#212529" font-family="'JetBrains Mono', Consolas, 'DejaVu Sans Mono', monospace">use</text>
<rect x="23.5" y="752.5" width="259" height="22" fill="#fff" stroke="#DEE2E6"/>
<text x="31" y="767.5" font-size="13.5" fill="#212529">SetCatalogSessionProperty<tspan fill="#868E96" font-size="11.5">  sessionproperty</tspan></text>
<rect x="282.5" y="752.5" width="106" height="22" fill="#fff" stroke="#DEE2E6"/>
<text x="292" y="767.5" font-size="13" fill="#212529" font-family="'JetBrains Mono', Consolas, 'DejaVu Sans Mono', monospace">alter</text>
<rect x="23.5" y="774.5" width="259" height="22" fill="#fff" stroke="#DEE2E6"/>
<text x="31" y="789.5" font-size="13.5" fill="#212529">FilterCatalogs<tspan fill="#868E96" font-size="12"> (batch)</tspan></text>
<rect x="282.5" y="774.5" width="106" height="22" fill="#fff" stroke="#DEE2E6"/>
<text x="292" y="789.5" font-size="13" fill="#212529" font-family="'JetBrains Mono', Consolas, 'DejaVu Sans Mono', monospace">select</text>
<rect x="23.5" y="796.5" width="259" height="22" fill="#fff" stroke="#DEE2E6"/>
<text x="31" y="811.5" font-size="13.5" fill="#212529">CreateCatalog</text>
<rect x="282.5" y="796.5" width="106" height="22" fill="#FFF5F5" stroke="#DEE2E6"/>
<text x="292" y="811.5" font-size="13" fill="#C92A2A" >✕ denied</text>
<rect x="23.5" y="818.5" width="259" height="22" fill="#fff" stroke="#DEE2E6"/>
<text x="31" y="833.5" font-size="13.5" fill="#212529">DropCatalog</text>
<rect x="282.5" y="818.5" width="106" height="22" fill="#FFF5F5" stroke="#DEE2E6"/>
<text x="292" y="833.5" font-size="13" fill="#C92A2A" >✕ denied</text>
<text x="20" y="880" font-size="16" font-weight="700" fill="#E8590C">SCHEMA</text>
<text x="388" y="880" font-size="11.5" text-anchor="end" fill="#868E96">catalog.schema</text>
<rect x="20" y="888" width="3" height="154" fill="#E8590C"/>
<rect x="23.5" y="888.5" width="259" height="22" fill="#fff" stroke="#DEE2E6"/>
<text x="31" y="903.5" font-size="13.5" fill="#212529">CreateSchema<tspan font-weight="700">‡</tspan></text>
<rect x="282.5" y="888.5" width="106" height="22" fill="#fff" stroke="#DEE2E6"/>
<text x="292" y="903.5" font-size="13" fill="#212529" font-family="'JetBrains Mono', Consolas, 'DejaVu Sans Mono', monospace">create</text>
<rect x="23.5" y="910.5" width="259" height="22" fill="#fff" stroke="#DEE2E6"/>
<text x="31" y="925.5" font-size="13.5" fill="#212529">DropSchema</text>
<rect x="282.5" y="910.5" width="106" height="22" fill="#fff" stroke="#DEE2E6"/>
<text x="292" y="925.5" font-size="13" fill="#212529" font-family="'JetBrains Mono', Consolas, 'DejaVu Sans Mono', monospace">drop</text>
<rect x="23.5" y="932.5" width="259" height="22" fill="#fff" stroke="#DEE2E6"/>
<text x="31" y="947.5" font-size="13.5" fill="#212529">RenameSchema</text>
<rect x="282.5" y="932.5" width="106" height="22" fill="#fff" stroke="#DEE2E6"/>
<text x="292" y="947.5" font-size="13" fill="#212529" font-family="'JetBrains Mono', Consolas, 'DejaVu Sans Mono', monospace">alter</text>
<rect x="23.5" y="954.5" width="259" height="22" fill="#fff" stroke="#DEE2E6"/>
<text x="31" y="969.5" font-size="13.5" fill="#212529">SetSchemaAuthorization</text>
<rect x="282.5" y="954.5" width="106" height="22" fill="#fff" stroke="#DEE2E6"/>
<text x="292" y="969.5" font-size="13" fill="#212529" font-family="'JetBrains Mono', Consolas, 'DejaVu Sans Mono', monospace">grant</text>
<rect x="23.5" y="976.5" width="259" height="22" fill="#fff" stroke="#DEE2E6"/>
<text x="31" y="991.5" font-size="13.5" fill="#212529">ShowSchemas</text>
<rect x="282.5" y="976.5" width="106" height="22" fill="#fff" stroke="#DEE2E6"/>
<text x="292" y="991.5" font-size="13" fill="#212529" font-family="'JetBrains Mono', Consolas, 'DejaVu Sans Mono', monospace">show</text>
<rect x="23.5" y="998.5" width="259" height="22" fill="#fff" stroke="#DEE2E6"/>
<text x="31" y="1013.5" font-size="13.5" fill="#212529">ShowCreateSchema</text>
<rect x="282.5" y="998.5" width="106" height="22" fill="#fff" stroke="#DEE2E6"/>
<text x="292" y="1013.5" font-size="13" fill="#212529" font-family="'JetBrains Mono', Consolas, 'DejaVu Sans Mono', monospace">show</text>
<rect x="23.5" y="1020.5" width="259" height="22" fill="#fff" stroke="#DEE2E6"/>
<text x="31" y="1035.5" font-size="13.5" fill="#212529">FilterSchemas<tspan fill="#868E96" font-size="12"> (batch)</tspan></text>
<rect x="282.5" y="1020.5" width="106" height="22" fill="#fff" stroke="#DEE2E6"/>
<text x="292" y="1035.5" font-size="13" fill="#212529" font-family="'JetBrains Mono', Consolas, 'DejaVu Sans Mono', monospace">select</text>
<text x="20" y="1082" font-size="16" font-weight="700" fill="#2F9E44">COLUMN</text>
<text x="388" y="1082" font-size="11.5" text-anchor="end" fill="#868E96">…table.column</text>
<rect x="20" y="1090" width="3" height="176" fill="#2F9E44"/>
<rect x="23.5" y="1090.5" width="259" height="22" fill="#fff" stroke="#DEE2E6"/>
<text x="31" y="1105.5" font-size="13.5" fill="#212529">SelectFromColumns</text>
<rect x="282.5" y="1090.5" width="106" height="22" fill="#fff" stroke="#DEE2E6"/>
<text x="292" y="1105.5" font-size="13" fill="#212529" font-family="'JetBrains Mono', Consolas, 'DejaVu Sans Mono', monospace">select</text>
<rect x="23.5" y="1112.5" width="259" height="22" fill="#fff" stroke="#DEE2E6"/>
<text x="31" y="1127.5" font-size="13.5" fill="#212529">ShowColumns</text>
<rect x="282.5" y="1112.5" width="106" height="22" fill="#fff" stroke="#DEE2E6"/>
<text x="292" y="1127.5" font-size="13" fill="#212529" font-family="'JetBrains Mono', Consolas, 'DejaVu Sans Mono', monospace">show</text>
<rect x="23.5" y="1134.5" width="259" height="22" fill="#fff" stroke="#DEE2E6"/>
<text x="31" y="1149.5" font-size="13.5" fill="#212529">AddColumn</text>
<rect x="282.5" y="1134.5" width="106" height="22" fill="#fff" stroke="#DEE2E6"/>
<text x="292" y="1149.5" font-size="13" fill="#212529" font-family="'JetBrains Mono', Consolas, 'DejaVu Sans Mono', monospace">alter</text>
<rect x="23.5" y="1156.5" width="259" height="22" fill="#fff" stroke="#DEE2E6"/>
<text x="31" y="1171.5" font-size="13.5" fill="#212529">AlterColumn</text>
<rect x="282.5" y="1156.5" width="106" height="22" fill="#fff" stroke="#DEE2E6"/>
<text x="292" y="1171.5" font-size="13" fill="#212529" font-family="'JetBrains Mono', Consolas, 'DejaVu Sans Mono', monospace">alter</text>
<rect x="23.5" y="1178.5" width="259" height="22" fill="#fff" stroke="#DEE2E6"/>
<text x="31" y="1193.5" font-size="13.5" fill="#212529">RenameColumn</text>
<rect x="282.5" y="1178.5" width="106" height="22" fill="#fff" stroke="#DEE2E6"/>
<text x="292" y="1193.5" font-size="13" fill="#212529" font-family="'JetBrains Mono', Consolas, 'DejaVu Sans Mono', monospace">alter</text>
<rect x="23.5" y="1200.5" width="259" height="22" fill="#fff" stroke="#DEE2E6"/>
<text x="31" y="1215.5" font-size="13.5" fill="#212529">SetColumnComment</text>
<rect x="282.5" y="1200.5" width="106" height="22" fill="#fff" stroke="#DEE2E6"/>
<text x="292" y="1215.5" font-size="13" fill="#212529" font-family="'JetBrains Mono', Consolas, 'DejaVu Sans Mono', monospace">alter</text>
<rect x="23.5" y="1222.5" width="259" height="22" fill="#fff" stroke="#DEE2E6"/>
<text x="31" y="1237.5" font-size="13.5" fill="#212529">DropColumn</text>
<rect x="282.5" y="1222.5" width="106" height="22" fill="#fff" stroke="#DEE2E6"/>
<text x="292" y="1237.5" font-size="13" fill="#212529" font-family="'JetBrains Mono', Consolas, 'DejaVu Sans Mono', monospace">drop</text>
<rect x="23.5" y="1244.5" width="259" height="22" fill="#fff" stroke="#DEE2E6"/>
<text x="31" y="1259.5" font-size="13.5" fill="#212529">FilterColumns<tspan fill="#868E96" font-size="11.5">  all columns returned</tspan></text>
<rect x="282.5" y="1244.5" width="106" height="22" fill="#EBFBEE" stroke="#DEE2E6"/>
<text x="292" y="1259.5" font-size="13" fill="#2B8A3E" >✓ always</text>
<text x="413" y="722" font-size="16" font-weight="700" fill="#5C940D">TABLE</text>
<text x="781" y="722" font-size="11.5" text-anchor="end" fill="#868E96">catalog.schema.table</text>
<rect x="413" y="730" width="3" height="308" fill="#5C940D"/>
<rect x="416.5" y="730.5" width="259" height="22" fill="#fff" stroke="#DEE2E6"/>
<text x="424" y="745.5" font-size="13.5" fill="#212529">CreateTable<tspan font-weight="700">†</tspan></text>
<rect x="675.5" y="730.5" width="106" height="22" fill="#fff" stroke="#DEE2E6"/>
<text x="685" y="745.5" font-size="13" fill="#212529" font-family="'JetBrains Mono', Consolas, 'DejaVu Sans Mono', monospace">create</text>
<rect x="416.5" y="752.5" width="259" height="22" fill="#fff" stroke="#DEE2E6"/>
<text x="424" y="767.5" font-size="13.5" fill="#212529">DropTable</text>
<rect x="675.5" y="752.5" width="106" height="22" fill="#fff" stroke="#DEE2E6"/>
<text x="685" y="767.5" font-size="13" fill="#212529" font-family="'JetBrains Mono', Consolas, 'DejaVu Sans Mono', monospace">drop</text>
<rect x="416.5" y="774.5" width="259" height="22" fill="#fff" stroke="#DEE2E6"/>
<text x="424" y="789.5" font-size="13.5" fill="#212529">RenameTable</text>
<rect x="675.5" y="774.5" width="106" height="22" fill="#fff" stroke="#DEE2E6"/>
<text x="685" y="789.5" font-size="13" fill="#212529" font-family="'JetBrains Mono', Consolas, 'DejaVu Sans Mono', monospace">alter</text>
<rect x="416.5" y="796.5" width="259" height="22" fill="#fff" stroke="#DEE2E6"/>
<text x="424" y="811.5" font-size="13.5" fill="#212529">SetTableProperties</text>
<rect x="675.5" y="796.5" width="106" height="22" fill="#fff" stroke="#DEE2E6"/>
<text x="685" y="811.5" font-size="13" fill="#212529" font-family="'JetBrains Mono', Consolas, 'DejaVu Sans Mono', monospace">alter</text>
<rect x="416.5" y="818.5" width="259" height="22" fill="#fff" stroke="#DEE2E6"/>
<text x="424" y="833.5" font-size="13.5" fill="#212529">SetTableComment</text>
<rect x="675.5" y="818.5" width="106" height="22" fill="#fff" stroke="#DEE2E6"/>
<text x="685" y="833.5" font-size="13" fill="#212529" font-family="'JetBrains Mono', Consolas, 'DejaVu Sans Mono', monospace">alter</text>
<rect x="416.5" y="840.5" width="259" height="22" fill="#fff" stroke="#DEE2E6"/>
<text x="424" y="855.5" font-size="13.5" fill="#212529">SetTableAuthorization</text>
<rect x="675.5" y="840.5" width="106" height="22" fill="#fff" stroke="#DEE2E6"/>
<text x="685" y="855.5" font-size="13" fill="#212529" font-family="'JetBrains Mono', Consolas, 'DejaVu Sans Mono', monospace">grant</text>
<rect x="416.5" y="862.5" width="259" height="22" fill="#fff" stroke="#DEE2E6"/>
<text x="424" y="877.5" font-size="13.5" fill="#212529">InsertIntoTable</text>
<rect x="675.5" y="862.5" width="106" height="22" fill="#fff" stroke="#DEE2E6"/>
<text x="685" y="877.5" font-size="13" fill="#212529" font-family="'JetBrains Mono', Consolas, 'DejaVu Sans Mono', monospace">insert</text>
<rect x="416.5" y="884.5" width="259" height="22" fill="#fff" stroke="#DEE2E6"/>
<text x="424" y="899.5" font-size="13.5" fill="#212529">UpdateTableColumns</text>
<rect x="675.5" y="884.5" width="106" height="22" fill="#fff" stroke="#DEE2E6"/>
<text x="685" y="899.5" font-size="13" fill="#212529" font-family="'JetBrains Mono', Consolas, 'DejaVu Sans Mono', monospace">insert</text>
<rect x="416.5" y="906.5" width="259" height="22" fill="#fff" stroke="#DEE2E6"/>
<text x="424" y="921.5" font-size="13.5" fill="#212529">DeleteFromTable</text>
<rect x="675.5" y="906.5" width="106" height="22" fill="#fff" stroke="#DEE2E6"/>
<text x="685" y="921.5" font-size="13" fill="#212529" font-family="'JetBrains Mono', Consolas, 'DejaVu Sans Mono', monospace">delete</text>
<rect x="416.5" y="928.5" width="259" height="22" fill="#fff" stroke="#DEE2E6"/>
<text x="424" y="943.5" font-size="13.5" fill="#212529">TruncateTable</text>
<rect x="675.5" y="928.5" width="106" height="22" fill="#fff" stroke="#DEE2E6"/>
<text x="685" y="943.5" font-size="13" fill="#212529" font-family="'JetBrains Mono', Consolas, 'DejaVu Sans Mono', monospace">delete</text>
<rect x="416.5" y="950.5" width="259" height="22" fill="#fff" stroke="#DEE2E6"/>
<text x="424" y="965.5" font-size="13.5" fill="#212529">ExecuteTableProcedure</text>
<rect x="675.5" y="950.5" width="106" height="22" fill="#fff" stroke="#DEE2E6"/>
<text x="685" y="965.5" font-size="13" fill="#212529" font-family="'JetBrains Mono', Consolas, 'DejaVu Sans Mono', monospace">execute</text>
<rect x="416.5" y="972.5" width="259" height="22" fill="#fff" stroke="#DEE2E6"/>
<text x="424" y="987.5" font-size="13.5" fill="#212529">ShowTables</text>
<rect x="675.5" y="972.5" width="106" height="22" fill="#fff" stroke="#DEE2E6"/>
<text x="685" y="987.5" font-size="13" fill="#212529" font-family="'JetBrains Mono', Consolas, 'DejaVu Sans Mono', monospace">show</text>
<rect x="416.5" y="994.5" width="259" height="22" fill="#fff" stroke="#DEE2E6"/>
<text x="424" y="1009.5" font-size="13.5" fill="#212529">ShowCreateTable</text>
<rect x="675.5" y="994.5" width="106" height="22" fill="#fff" stroke="#DEE2E6"/>
<text x="685" y="1009.5" font-size="13" fill="#212529" font-family="'JetBrains Mono', Consolas, 'DejaVu Sans Mono', monospace">show</text>
<rect x="416.5" y="1016.5" width="259" height="22" fill="#fff" stroke="#DEE2E6"/>
<text x="424" y="1031.5" font-size="13.5" fill="#212529">FilterTables<tspan fill="#868E96" font-size="12"> (batch)</tspan></text>
<rect x="675.5" y="1016.5" width="106" height="22" fill="#fff" stroke="#DEE2E6"/>
<text x="685" y="1031.5" font-size="13" fill="#212529" font-family="'JetBrains Mono', Consolas, 'DejaVu Sans Mono', monospace">select</text>
<text x="413" y="1078" font-size="16" font-weight="700" fill="#7048E8">ROW FILTER &amp; COLUMN MASK</text>
<text x="781" y="1078" font-size="11.5" text-anchor="end" fill="#868E96">own OPA endpoints</text>
<rect x="413" y="1086" width="3" height="44" fill="#7048E8"/>
<rect x="416.5" y="1086.5" width="259" height="22" fill="#fff" stroke="#DEE2E6"/>
<text x="424" y="1101.5" font-size="13.5" fill="#212529">GetRowFilters<tspan fill="#868E96" font-size="11.5">  row-filters-uri</tspan></text>
<rect x="675.5" y="1086.5" width="106" height="22" fill="#F3F0FF" stroke="#DEE2E6"/>
<text x="685" y="1101.5" font-size="13" fill="#6741D9" >provider</text>
<rect x="416.5" y="1108.5" width="259" height="22" fill="#fff" stroke="#DEE2E6"/>
<text x="424" y="1123.5" font-size="13.5" fill="#212529">GetColumnMask<tspan fill="#868E96" font-size="12"> (batch)</tspan><tspan fill="#868E96" font-size="11.5">  column-masking-uri</tspan></text>
<rect x="675.5" y="1108.5" width="106" height="22" fill="#F3F0FF" stroke="#DEE2E6"/>
<text x="685" y="1123.5" font-size="13" fill="#6741D9" >provider</text>
<text x="806" y="722" font-size="16" font-weight="700" fill="#1C7ED6">VIEW &amp; MATERIALIZED VIEW</text>
<text x="1174" y="722" font-size="11.5" text-anchor="end" fill="#868E96">catalog.schema.table</text>
<rect x="806" y="730" width="3" height="264" fill="#1C7ED6"/>
<rect x="809.5" y="730.5" width="259" height="22" fill="#fff" stroke="#DEE2E6"/>
<text x="817" y="745.5" font-size="13.5" fill="#212529">CreateView<tspan font-weight="700">†</tspan></text>
<rect x="1068.5" y="730.5" width="106" height="22" fill="#fff" stroke="#DEE2E6"/>
<text x="1078" y="745.5" font-size="13" fill="#212529" font-family="'JetBrains Mono', Consolas, 'DejaVu Sans Mono', monospace">create</text>
<rect x="809.5" y="752.5" width="259" height="22" fill="#fff" stroke="#DEE2E6"/>
<text x="817" y="767.5" font-size="13.5" fill="#212529">DropView</text>
<rect x="1068.5" y="752.5" width="106" height="22" fill="#fff" stroke="#DEE2E6"/>
<text x="1078" y="767.5" font-size="13" fill="#212529" font-family="'JetBrains Mono', Consolas, 'DejaVu Sans Mono', monospace">drop</text>
<rect x="809.5" y="774.5" width="259" height="22" fill="#fff" stroke="#DEE2E6"/>
<text x="817" y="789.5" font-size="13.5" fill="#212529">RenameView</text>
<rect x="1068.5" y="774.5" width="106" height="22" fill="#fff" stroke="#DEE2E6"/>
<text x="1078" y="789.5" font-size="13" fill="#212529" font-family="'JetBrains Mono', Consolas, 'DejaVu Sans Mono', monospace">alter</text>
<rect x="809.5" y="796.5" width="259" height="22" fill="#fff" stroke="#DEE2E6"/>
<text x="817" y="811.5" font-size="13.5" fill="#212529">SetViewComment</text>
<rect x="1068.5" y="796.5" width="106" height="22" fill="#fff" stroke="#DEE2E6"/>
<text x="1078" y="811.5" font-size="13" fill="#212529" font-family="'JetBrains Mono', Consolas, 'DejaVu Sans Mono', monospace">alter</text>
<rect x="809.5" y="818.5" width="259" height="22" fill="#fff" stroke="#DEE2E6"/>
<text x="817" y="833.5" font-size="13.5" fill="#212529">SetViewAuthorization</text>
<rect x="1068.5" y="818.5" width="106" height="22" fill="#fff" stroke="#DEE2E6"/>
<text x="1078" y="833.5" font-size="13" fill="#212529" font-family="'JetBrains Mono', Consolas, 'DejaVu Sans Mono', monospace">grant</text>
<rect x="809.5" y="840.5" width="259" height="22" fill="#fff" stroke="#DEE2E6"/>
<text x="817" y="855.5" font-size="13.5" fill="#212529">CreateViewWithExecuteFunction</text>
<rect x="1068.5" y="840.5" width="106" height="22" fill="#fff" stroke="#DEE2E6"/>
<text x="1078" y="855.5" font-size="13" fill="#212529" font-family="'JetBrains Mono', Consolas, 'DejaVu Sans Mono', monospace">grant</text>
<rect x="809.5" y="862.5" width="259" height="22" fill="#fff" stroke="#DEE2E6"/>
<text x="817" y="877.5" font-size="13.5" fill="#212529">CreateViewWithSelectFromColumns</text>
<rect x="1068.5" y="862.5" width="106" height="22" fill="#FFF5F5" stroke="#DEE2E6"/>
<text x="1078" y="877.5" font-size="13" fill="#C92A2A" >✕ denied</text>
<rect x="809.5" y="884.5" width="259" height="22" fill="#fff" stroke="#DEE2E6"/>
<text x="817" y="899.5" font-size="13.5" fill="#212529">CreateMaterializedView</text>
<rect x="1068.5" y="884.5" width="106" height="22" fill="#fff" stroke="#DEE2E6"/>
<text x="1078" y="899.5" font-size="13" fill="#212529" font-family="'JetBrains Mono', Consolas, 'DejaVu Sans Mono', monospace">create</text>
<rect x="809.5" y="906.5" width="259" height="22" fill="#fff" stroke="#DEE2E6"/>
<text x="817" y="921.5" font-size="13.5" fill="#212529">DropMaterializedView</text>
<rect x="1068.5" y="906.5" width="106" height="22" fill="#fff" stroke="#DEE2E6"/>
<text x="1078" y="921.5" font-size="13" fill="#212529" font-family="'JetBrains Mono', Consolas, 'DejaVu Sans Mono', monospace">drop</text>
<rect x="809.5" y="928.5" width="259" height="22" fill="#fff" stroke="#DEE2E6"/>
<text x="817" y="943.5" font-size="13.5" fill="#212529">RenameMaterializedView</text>
<rect x="1068.5" y="928.5" width="106" height="22" fill="#fff" stroke="#DEE2E6"/>
<text x="1078" y="943.5" font-size="13" fill="#212529" font-family="'JetBrains Mono', Consolas, 'DejaVu Sans Mono', monospace">alter</text>
<rect x="809.5" y="950.5" width="259" height="22" fill="#fff" stroke="#DEE2E6"/>
<text x="817" y="965.5" font-size="13.5" fill="#212529">RefreshMaterializedView</text>
<rect x="1068.5" y="950.5" width="106" height="22" fill="#fff" stroke="#DEE2E6"/>
<text x="1078" y="965.5" font-size="13" fill="#212529" font-family="'JetBrains Mono', Consolas, 'DejaVu Sans Mono', monospace">alter</text>
<rect x="809.5" y="972.5" width="259" height="22" fill="#fff" stroke="#DEE2E6"/>
<text x="817" y="987.5" font-size="13.5" fill="#212529">SetMaterializedViewProperties</text>
<rect x="1068.5" y="972.5" width="106" height="22" fill="#fff" stroke="#DEE2E6"/>
<text x="1078" y="987.5" font-size="13" fill="#212529" font-family="'JetBrains Mono', Consolas, 'DejaVu Sans Mono', monospace">alter</text>
<text x="806" y="1034" font-size="16" font-weight="700" fill="#1098AD">SYSTEM</text>
<text x="1174" y="1034" font-size="11.5" text-anchor="end" fill="#868E96">systemproperty</text>
<rect x="806" y="1042" width="3" height="66" fill="#1098AD"/>
<rect x="809.5" y="1042.5" width="259" height="22" fill="#fff" stroke="#DEE2E6"/>
<text x="817" y="1057.5" font-size="13.5" fill="#212529">SetSystemSessionProperty</text>
<rect x="1068.5" y="1042.5" width="106" height="22" fill="#fff" stroke="#DEE2E6"/>
<text x="1078" y="1057.5" font-size="13" fill="#212529" font-family="'JetBrains Mono', Consolas, 'DejaVu Sans Mono', monospace">alter</text>
<rect x="809.5" y="1064.5" width="259" height="22" fill="#fff" stroke="#DEE2E6"/>
<text x="817" y="1079.5" font-size="13.5" fill="#212529">ReadSystemInformation</text>
<rect x="1068.5" y="1064.5" width="106" height="22" fill="#FFF5F5" stroke="#DEE2E6"/>
<text x="1078" y="1079.5" font-size="13" fill="#C92A2A" >✕ denied</text>
<rect x="809.5" y="1086.5" width="259" height="22" fill="#fff" stroke="#DEE2E6"/>
<text x="817" y="1101.5" font-size="13.5" fill="#212529">WriteSystemInformation</text>
<rect x="1068.5" y="1086.5" width="106" height="22" fill="#FFF5F5" stroke="#DEE2E6"/>
<text x="1078" y="1101.5" font-size="13" fill="#C92A2A" >✕ denied</text>
<text x="1199" y="722" font-size="16" font-weight="700" fill="#0C8599">FUNCTION &amp; PROCEDURE</text>
<text x="1567" y="722" font-size="11.5" text-anchor="end" fill="#868E96">catalog.schema.procedure</text>
<rect x="1199" y="730" width="3" height="154" fill="#0C8599"/>
<rect x="1202.5" y="730.5" width="259" height="22" fill="#fff" stroke="#DEE2E6"/>
<text x="1210" y="745.5" font-size="13.5" fill="#212529">ExecuteFunction<tspan fill="#868E96" font-size="11.5">  custom functions only</tspan></text>
<rect x="1461.5" y="730.5" width="106" height="22" fill="#fff" stroke="#DEE2E6"/>
<text x="1471" y="745.5" font-size="13" fill="#212529" font-family="'JetBrains Mono', Consolas, 'DejaVu Sans Mono', monospace">execute</text>
<rect x="1202.5" y="752.5" width="259" height="22" fill="#fff" stroke="#DEE2E6"/>
<text x="1210" y="767.5" font-size="13.5" fill="#212529">ExecuteProcedure</text>
<rect x="1461.5" y="752.5" width="106" height="22" fill="#fff" stroke="#DEE2E6"/>
<text x="1471" y="767.5" font-size="13" fill="#212529" font-family="'JetBrains Mono', Consolas, 'DejaVu Sans Mono', monospace">execute</text>
<rect x="1202.5" y="774.5" width="259" height="22" fill="#fff" stroke="#DEE2E6"/>
<text x="1210" y="789.5" font-size="13.5" fill="#212529">ShowFunctions</text>
<rect x="1461.5" y="774.5" width="106" height="22" fill="#FFF5F5" stroke="#DEE2E6"/>
<text x="1471" y="789.5" font-size="13" fill="#C92A2A" >✕ denied</text>
<rect x="1202.5" y="796.5" width="259" height="22" fill="#fff" stroke="#DEE2E6"/>
<text x="1210" y="811.5" font-size="13.5" fill="#212529">ShowCreateFunction</text>
<rect x="1461.5" y="796.5" width="106" height="22" fill="#FFF5F5" stroke="#DEE2E6"/>
<text x="1471" y="811.5" font-size="13" fill="#C92A2A" >✕ denied</text>
<rect x="1202.5" y="818.5" width="259" height="22" fill="#fff" stroke="#DEE2E6"/>
<text x="1210" y="833.5" font-size="13.5" fill="#212529">FilterFunctions<tspan fill="#868E96" font-size="12"> (batch)</tspan><tspan fill="#868E96" font-size="11.5">  none returned</tspan></text>
<rect x="1461.5" y="818.5" width="106" height="22" fill="#FFF5F5" stroke="#DEE2E6"/>
<text x="1471" y="833.5" font-size="13" fill="#C92A2A" >✕ denied</text>
<rect x="1202.5" y="840.5" width="259" height="22" fill="#fff" stroke="#DEE2E6"/>
<text x="1210" y="855.5" font-size="13.5" fill="#212529">CreateFunction</text>
<rect x="1461.5" y="840.5" width="106" height="22" fill="#FFF5F5" stroke="#DEE2E6"/>
<text x="1471" y="855.5" font-size="13" fill="#C92A2A" >✕ denied</text>
<rect x="1202.5" y="862.5" width="259" height="22" fill="#fff" stroke="#DEE2E6"/>
<text x="1210" y="877.5" font-size="13.5" fill="#212529">DropFunction</text>
<rect x="1461.5" y="862.5" width="106" height="22" fill="#FFF5F5" stroke="#DEE2E6"/>
<text x="1471" y="877.5" font-size="13" fill="#C92A2A" >✕ denied</text>
<text x="1199" y="924" font-size="16" font-weight="700" fill="#1971C2">USER &amp; QUERY</text>
<text x="1567" y="924" font-size="11.5" text-anchor="end" fill="#868E96">trinouser</text>
<rect x="1199" y="932" width="3" height="110" fill="#1971C2"/>
<rect x="1202.5" y="932.5" width="259" height="22" fill="#fff" stroke="#DEE2E6"/>
<text x="1210" y="947.5" font-size="13.5" fill="#212529">ImpersonateUser</text>
<rect x="1461.5" y="932.5" width="106" height="22" fill="#fff" stroke="#DEE2E6"/>
<text x="1471" y="947.5" font-size="13" fill="#212529" font-family="'JetBrains Mono', Consolas, 'DejaVu Sans Mono', monospace">impersonate</text>
<rect x="1202.5" y="954.5" width="259" height="22" fill="#fff" stroke="#DEE2E6"/>
<text x="1210" y="969.5" font-size="13.5" fill="#212529">ViewQueryOwnedBy</text>
<rect x="1461.5" y="954.5" width="106" height="22" fill="#fff" stroke="#DEE2E6"/>
<text x="1471" y="969.5" font-size="13" fill="#212529" font-family="'JetBrains Mono', Consolas, 'DejaVu Sans Mono', monospace">impersonate</text>
<rect x="1202.5" y="976.5" width="259" height="22" fill="#fff" stroke="#DEE2E6"/>
<text x="1210" y="991.5" font-size="13.5" fill="#212529">KillQueryOwnedBy</text>
<rect x="1461.5" y="976.5" width="106" height="22" fill="#fff" stroke="#DEE2E6"/>
<text x="1471" y="991.5" font-size="13" fill="#212529" font-family="'JetBrains Mono', Consolas, 'DejaVu Sans Mono', monospace">impersonate</text>
<rect x="1202.5" y="998.5" width="259" height="22" fill="#fff" stroke="#DEE2E6"/>
<text x="1210" y="1013.5" font-size="13.5" fill="#212529">FilterViewQueryOwnedBy<tspan fill="#868E96" font-size="12"> (batch)</tspan></text>
<rect x="1461.5" y="998.5" width="106" height="22" fill="#fff" stroke="#DEE2E6"/>
<text x="1471" y="1013.5" font-size="13" fill="#212529" font-family="'JetBrains Mono', Consolas, 'DejaVu Sans Mono', monospace">impersonate</text>
<rect x="1202.5" y="1020.5" width="259" height="22" fill="#fff" stroke="#DEE2E6"/>
<text x="1210" y="1035.5" font-size="13.5" fill="#212529">ExecuteQuery</text>
<rect x="1461.5" y="1020.5" width="106" height="22" fill="#EBFBEE" stroke="#DEE2E6"/>
<text x="1471" y="1035.5" font-size="13" fill="#2B8A3E" >✓ always</text>
<rect x="20.5" y="1292.5" width="766" height="149" rx="8" fill="#F8F9FA" stroke="#DEE2E6"/>
<rect x="20.5" y="1292.5" width="4" height="149" rx="2" fill="#495057"/>
<text x="38" y="1318" font-size="15" font-weight="700" fill="#212529">Decided inside the plugin — never sent to OPA</text>
<text x="38" y="1342" font-size="13" fill="#343A40"><tspan fill="#C92A2A">✕</tspan> GRANT / REVOKE / DENY on schemas and tables; CREATE / DROP ROLE; GRANT / REVOKE ROLE</text>
<text x="38" y="1363" font-size="13" fill="#343A40"><tspan fill="#868E96">    <tspan font-family="'JetBrains Mono', Consolas, 'DejaVu Sans Mono', monospace" font-size="12">opa.allow-permission-management-operations</tspan> = false (default). true allows all of them, unchecked.</tspan></text>
<text x="38" y="1384" font-size="13" fill="#343A40"><tspan fill="#2B8A3E">✓</tspan> SHOW ROLES, SHOW CURRENT ROLES, SHOW ROLE GRANTS — OPA holds no role information</text>
<text x="38" y="1405" font-size="13" fill="#343A40"><tspan fill="#C92A2A">✕</tspan> Branches: CREATE / DROP / FAST FORWARD / SHOW BRANCHES and branch privileges (SPI default)</text>
<text x="38" y="1426" font-size="13" fill="#343A40"><tspan fill="#C92A2A">✕</tspan> REFRESH VIEW and SET MATERIALIZED VIEW AUTHORIZATION (SPI default)</text>
<rect x="806.5" y="1292.5" width="774" height="149" rx="8" fill="#F8F9FA" stroke="#DEE2E6"/>
<rect x="806.5" y="1292.5" width="4" height="149" rx="2" fill="#4263EB"/>
<text x="824" y="1318" font-size="15" font-weight="700" fill="#212529">Changes from the legacy parse-tree diagram</text>
<text x="824" y="1342" font-size="13" fill="#343A40"><tspan fill="#2B8A3E" font-weight="700">+</tspan> CreateCatalog, DropCatalog, FilterCatalogs, AlterColumn, SetColumnComment, SetTableProperties,</text>
<text x="824" y="1363" font-size="13" fill="#343A40">   Set{Table,View}Authorization, SetViewComment, SetMaterializedViewProperties, Read/WriteSystemInformation</text>
<text x="824" y="1384" font-size="13" fill="#343A40"><tspan fill="#C92A2A" font-weight="700">−</tspan> GrantTablePrivilege, RevokeTablePrivilege — never reach OPA (see left)</text>
<text x="824" y="1405" font-size="13" fill="#343A40"><tspan fill="#4263EB" font-weight="700">~</tspan> FilterColumns: select → always · GetColumnMask / row filter → provider · functions: execute or denied</text>
<text x="824" y="1426" font-size="13" fill="#343A40"><tspan fill="#4263EB" font-weight="700">~</tspan> FilterViewQueryOwnedBy moved to USER &amp; QUERY · grants attach only at resource nodes, not SUM/AVG</text>
<text x="20" y="1463" font-size="11.5" fill="#868E96">Gaps flagged ✕ denied (unmapped in the rego) are candidates for Trinocular's rego work: CreateViewWithSelectFromColumns affects non-owners querying SECURITY DEFINER views; function listing/DDL and system information are unreachable.</text>
</svg>
